<svg width="20" height="22" viewBox="0 0 20 22" fill="none" xmlns="http://www.w3.org/2000/svg">
<path fill-rule="evenodd" clip-rule="evenodd" d="M6.63558 2.11262C9.5783 -0.704205 14.3364 -0.704205 17.2791 2.11262C20.2403 4.94714 20.2403 9.55697 17.2791 12.3915L9.33103 19.9995C7.24097 22.0002 3.86532 22.0002 1.77525 19.9995C-0.333308 17.9812 -0.333309 14.6946 1.77525 12.6763L9.60895 5.17771C10.8464 3.99324 12.8396 3.99325 14.077 5.17771C15.3329 6.37989 15.3329 8.34316 14.077 9.54534L6.18612 17.0986C5.88689 17.385 5.41213 17.3747 5.12571 17.0754C4.83929 16.7762 4.84967 16.3015 5.14889 16.015L13.0398 8.46175C13.6786 7.85021 13.6786 6.87285 13.0398 6.2613C12.3824 5.63205 11.3036 5.63205 10.6462 6.2613L2.81248 13.7598C1.32095 15.1876 1.32095 17.4882 2.81248 18.9159C4.32251 20.3614 6.78377 20.3614 8.2938 18.9159L16.2419 11.3079C18.586 9.06402 18.586 5.4401 16.2419 3.1962C13.8792 0.934599 10.0355 0.934599 7.6728 3.1962L1.26861 9.3264C0.969391 9.61282 0.49463 9.60245 0.208208 9.30322C-0.0782145 9.004 -0.0678367 8.52924 0.231387 8.24281L6.63558 2.11262Z" fill="#1C274C"/>
</svg>
