<svg width="21" height="17" viewBox="0 0 21 17" fill="none" xmlns="http://www.w3.org/2000/svg">
<path d="M7.44631 7.14776e-07C6.31349 -2.2591e-05 5.38774 -4.16338e-05 4.65688 0.0982195C3.89293 0.20093 3.2306 0.423212 2.7019 0.951905C2.17321 1.4806 1.95093 2.14294 1.84822 2.90689C1.74996 3.63775 1.74997 4.56348 1.75 5.69631L1.75 11.7561C1.28493 11.7696 0.989288 11.8128 0.75 11.951C0.521971 12.0826 0.332614 12.272 0.200962 12.5C0 12.8481 0 13.3154 0 14.25C0 15.1846 0 15.6519 0.200962 16C0.332614 16.228 0.521971 16.4174 0.75 16.549C1.09808 16.75 1.56538 16.75 2.5 16.75C3.43462 16.75 3.90192 16.75 4.25 16.549C4.47803 16.4174 4.66739 16.228 4.79904 16C5 15.6519 5 15.1846 5 14.25C5 13.3154 5 12.8481 4.79904 12.5C4.66739 12.272 4.47803 12.0826 4.25 11.951C4.01071 11.8128 3.71507 11.7696 3.25 11.7561V5.75C3.25 4.55029 3.25159 3.72595 3.33484 3.10676C3.41519 2.50914 3.55902 2.21611 3.76256 2.01257C3.9661 1.80903 4.25914 1.66519 4.85676 1.58484C5.47595 1.5016 6.30029 1.5 7.5 1.5H12.5C13.6997 1.5 14.524 1.5016 15.1432 1.58484C15.7409 1.66519 16.0339 1.80903 16.2374 2.01257C16.441 2.21611 16.5848 2.50914 16.6652 3.10676C16.7484 3.72595 16.75 4.55029 16.75 5.75V6.93934L16.0303 6.21967C15.7374 5.92678 15.2626 5.92678 14.9697 6.21967C14.6768 6.51257 14.6768 6.98744 14.9697 7.28033L16.9697 9.28033C17.2626 9.57323 17.7374 9.57323 18.0303 9.28033L20.0303 7.28033C20.3232 6.98744 20.3232 6.51257 20.0303 6.21967C19.7374 5.92678 19.2626 5.92678 18.9697 6.21967L18.25 6.93934V5.69632C18.25 4.56349 18.25 3.63775 18.1518 2.90689C18.0491 2.14294 17.8268 1.4806 17.2981 0.951905C16.7694 0.423212 16.1071 0.20093 15.3431 0.0982195C14.6123 -4.16338e-05 13.6865 -2.2591e-05 12.5537 7.14776e-07H7.44631Z" fill="#1C274C"/>
<path d="M7.70096 12.5C7.5 12.8481 7.5 13.3154 7.5 14.25C7.5 15.1846 7.5 15.6519 7.70096 16C7.83261 16.228 8.02197 16.4174 8.25 16.549C8.59808 16.75 9.06538 16.75 10 16.75C10.9346 16.75 11.4019 16.75 11.75 16.549C11.978 16.4174 12.1674 16.228 12.299 16C12.5 15.6519 12.5 15.1846 12.5 14.25C12.5 13.3154 12.5 12.8481 12.299 12.5C12.1674 12.272 11.978 12.0826 11.75 11.951C11.4019 11.75 10.9346 11.75 10 11.75C9.06538 11.75 8.59808 11.75 8.25 11.951C8.02197 12.0826 7.83261 12.272 7.70096 12.5Z" fill="#1C274C"/>
<path d="M15 14.25C15 13.3154 15 12.8481 15.201 12.5C15.3326 12.272 15.522 12.0826 15.75 11.951C16.0981 11.75 16.5654 11.75 17.5 11.75C18.4346 11.75 18.9019 11.75 19.25 11.951C19.478 12.0826 19.6674 12.272 19.799 12.5C20 12.8481 20 13.3154 20 14.25C20 15.1846 20 15.6519 19.799 16C19.6674 16.228 19.478 16.4174 19.25 16.549C18.9019 16.75 18.4346 16.75 17.5 16.75C16.5654 16.75 16.0981 16.75 15.75 16.549C15.522 16.4174 15.3326 16.228 15.201 16C15 15.6519 15 15.1846 15 14.25Z" fill="#1C274C"/>
</svg>
