<svg width="32" height="32" viewBox="0 0 32 32" fill="none" xmlns="http://www.w3.org/2000/svg">
<path fill-rule="evenodd" clip-rule="evenodd" d="M15.9236 1.66666C12.8457 1.66664 10.4337 1.66663 8.55169 1.91965C6.62537 2.17864 5.10534 2.71909 3.91226 3.91217C2.71918 5.10525 2.17873 6.62528 1.91974 8.5516C1.66672 10.4336 1.66673 12.8456 1.66675 15.9235V16.0765C1.66673 19.1544 1.66672 21.5664 1.91974 23.4484C2.17873 25.3747 2.71918 26.8947 3.91226 28.0878C5.10534 29.2809 6.62537 29.8213 8.55169 30.0803C10.4337 30.3334 12.8457 30.3333 15.9236 30.3333H16.0766C19.1544 30.3333 21.5665 30.3334 23.4485 30.0803C25.3748 29.8213 26.8948 29.2809 28.0879 28.0878C29.281 26.8947 29.8214 25.3747 30.0804 23.4484C30.3334 21.5664 30.3334 19.1543 30.3334 16.0765V15.9235C30.3334 12.8456 30.3334 10.4336 30.0804 8.5516C29.8214 6.62528 29.281 5.10525 28.0879 3.91217C26.8948 2.71909 25.3748 2.17864 23.4485 1.91965C21.5665 1.66663 19.1544 1.66664 16.0766 1.66666H15.9236ZM8.33341 3.97573C6.91364 4.22007 6.01114 4.64172 5.32648 5.32639C4.56693 6.08593 4.13108 7.11355 3.90191 8.81809C3.66887 10.5514 3.66675 12.829 3.66675 16C3.66675 19.171 3.66887 21.4486 3.90191 23.1819C4.13108 24.8864 4.56693 25.9141 5.32648 26.6736C6.08602 27.4331 7.11365 27.869 8.81818 28.0982C10.5515 28.3312 12.8291 28.3333 16.0001 28.3333C19.171 28.3333 21.4487 28.3312 23.182 28.0982C24.8865 27.869 25.9141 27.4331 26.6737 26.6736C27.4332 25.9141 27.8691 24.8864 28.0983 23.1819C28.3313 21.4486 28.3334 19.171 28.3334 16C28.3334 12.829 28.3313 10.5514 28.0983 8.81809C27.8691 7.11355 27.4332 6.08593 26.6737 5.32639C25.989 4.64172 25.0865 4.22007 23.6667 3.97573V11.7747C23.6668 12.3981 23.6668 12.9095 23.6436 13.3118C23.6207 13.7087 23.5715 14.1199 23.4085 14.4869C22.8199 15.812 21.3679 16.5265 19.9589 16.1844C19.5687 16.0897 19.2129 15.8778 18.8845 15.6538C18.5515 15.4267 18.1463 15.1147 17.6523 14.7343L17.6276 14.7153C17.0019 14.2335 16.8257 14.1071 16.6642 14.037C16.2406 13.8529 15.7596 13.8529 15.336 14.037C15.1744 14.1071 14.9983 14.2335 14.3725 14.7153L14.3478 14.7343C13.8538 15.1147 13.4487 15.4267 13.1157 15.6538C12.7873 15.8778 12.4315 16.0897 12.0412 16.1844C10.6323 16.5265 9.18026 15.812 8.5917 14.4869C8.42868 14.1199 8.37947 13.7087 8.3566 13.3118C8.3334 12.9095 8.33341 12.3981 8.33341 11.7747V3.97573ZM21.6667 3.75995C20.1656 3.6678 18.3224 3.66666 16.0001 3.66666C13.6777 3.66666 11.8345 3.6678 10.3334 3.75995V11.7435C10.3334 12.4058 10.3338 12.859 10.3533 13.1968C10.3735 13.5467 10.4103 13.6544 10.4195 13.675C10.6157 14.1167 11.0997 14.3549 11.5694 14.2409C11.5913 14.2356 11.6991 14.1991 11.9887 14.0016C12.2682 13.8109 12.6276 13.5347 13.1523 13.1306L13.2417 13.0618C13.7353 12.6812 14.12 12.3847 14.539 12.2026C15.471 11.7977 16.5292 11.7977 17.4612 12.2026C17.8802 12.3847 18.2649 12.6812 18.7585 13.0618L18.8478 13.1306C19.3726 13.5347 19.7319 13.8109 20.0114 14.0016C20.301 14.1991 20.4089 14.2356 20.4308 14.2409C20.9005 14.3549 21.3845 14.1167 21.5807 13.675C21.5898 13.6544 21.6267 13.5467 21.6469 13.1968C21.6663 12.859 21.6667 12.4058 21.6667 11.7435V3.75995Z" fill="#643131"/>
</svg>
