<svg width="20" height="20" viewBox="0 0 20 20" fill="none" xmlns="http://www.w3.org/2000/svg">
<path fill-rule="evenodd" clip-rule="evenodd" d="M12.5 1.04166H9.11965C7.58819 1.04164 6.37516 1.04163 5.42582 1.16927C4.4488 1.30063 3.65801 1.57739 3.03437 2.20103C2.41073 2.82466 2.13397 3.61545 2.00261 4.59247C1.87498 5.54181 1.87499 6.75484 1.875 8.2863V13.3333C1.875 14.8935 3.01838 16.1867 4.51293 16.4206C4.6279 17.0573 4.84794 17.6007 5.29029 18.043C5.79189 18.5446 6.42345 18.7604 7.17354 18.8612C7.89602 18.9584 8.81462 18.9583 9.95428 18.9583H12.5457C13.6854 18.9583 14.604 18.9584 15.3265 18.8612C16.0766 18.7604 16.7081 18.5446 17.2097 18.043C17.7113 17.5414 17.9271 16.9099 18.0279 16.1598C18.125 15.4373 18.125 14.5187 18.125 13.379V9.12093C18.125 7.98127 18.125 7.06267 18.0279 6.3402C17.9271 5.59011 17.7113 4.95855 17.2097 4.45695C16.7674 4.0146 16.2239 3.79456 15.5873 3.67959C15.3534 2.18503 14.0602 1.04166 12.5 1.04166ZM14.2744 3.5593C14.0221 2.82185 13.323 2.29166 12.5 2.29166H9.16667C7.57765 2.29166 6.44876 2.29298 5.59238 2.40812C4.75397 2.52084 4.27093 2.73223 3.91825 3.08491C3.56558 3.43758 3.35419 3.92062 3.24147 4.75903C3.12633 5.61542 3.125 6.74431 3.125 8.33332V13.3333C3.125 14.1563 3.6552 14.8554 4.39264 15.1078C4.37498 14.5995 4.37499 14.0247 4.375 13.3791V9.12093C4.37498 7.98127 4.37497 7.06267 4.4721 6.3402C4.57295 5.59011 4.7887 4.95855 5.29029 4.45695C5.79189 3.95535 6.42345 3.73961 7.17354 3.63876C7.89601 3.54163 8.81461 3.54164 9.95427 3.54166H12.5457C13.1914 3.54165 13.7661 3.54164 14.2744 3.5593ZM6.17418 5.34083C6.40481 5.1102 6.72862 4.95982 7.3401 4.87761C7.96956 4.79298 8.80382 4.79166 10 4.79166H12.5C13.6962 4.79166 14.5304 4.79298 15.1599 4.87761C15.7714 4.95982 16.0952 5.1102 16.3258 5.34083C16.5565 5.57147 16.7068 5.89528 16.789 6.50676C16.8737 7.13622 16.875 7.97048 16.875 9.16666V13.3333C16.875 14.5295 16.8737 15.3638 16.789 15.9932C16.7068 16.6047 16.5565 16.9285 16.3258 17.1591C16.0952 17.3898 15.7714 17.5402 15.1599 17.6224C14.5304 17.707 13.6962 17.7083 12.5 17.7083H10C8.80382 17.7083 7.96956 17.707 7.3401 17.6224C6.72862 17.5402 6.40481 17.3898 6.17418 17.1591C5.94354 16.9285 5.79317 16.6047 5.71096 15.9932C5.62633 15.3638 5.625 14.5295 5.625 13.3333V9.16666C5.625 7.97048 5.62633 7.13622 5.71096 6.50676C5.79317 5.89528 5.94354 5.57147 6.17418 5.34083Z" fill="#0C6FFA"/>
</svg>
