<svg width="32" height="32" viewBox="0 0 32 32" fill="none" xmlns="http://www.w3.org/2000/svg">
<path d="M26.9738 14.7721C26.9359 14.6118 26.8591 14.4634 26.75 14.34C26.641 14.2165 26.5032 14.1219 26.3488 14.0646L19.1475 11.3634L20.98 2.1971C21.0215 1.98413 20.9926 1.76343 20.8977 1.56833C20.8028 1.37322 20.6469 1.21428 20.4538 1.1155C20.2606 1.01672 20.0405 0.983454 19.8267 1.02072C19.613 1.05799 19.4172 1.16377 19.2688 1.3221L5.26879 16.3221C5.15508 16.4419 5.07283 16.588 5.02937 16.7474C4.98591 16.9067 4.98261 17.0744 5.01975 17.2353C5.05689 17.3963 5.13332 17.5455 5.24222 17.6697C5.35111 17.7939 5.48908 17.8892 5.64379 17.9471L12.8475 20.6483L11.02 29.8046C10.9785 30.0176 11.0074 30.2383 11.1024 30.4334C11.1973 30.6285 11.3531 30.7874 11.5463 30.8862C11.7395 30.985 11.9596 31.0182 12.1733 30.981C12.3871 30.9437 12.5829 30.8379 12.7313 30.6796L26.7313 15.6796C26.8429 15.5598 26.9234 15.4143 26.9657 15.2561C27.008 15.0979 27.0108 14.9317 26.9738 14.7721ZM13.6713 26.7509L14.98 20.2034C15.0269 19.9711 14.9898 19.7298 14.8753 19.5224C14.7608 19.315 14.5765 19.155 14.355 19.0709L7.75004 16.5896L18.3275 5.2571L17.02 11.8046C16.9732 12.0368 17.0103 12.2781 17.1248 12.4855C17.2392 12.6929 17.4236 12.8529 17.645 12.9371L24.245 15.4121L13.6713 26.7509Z" fill="#E9BA00"/>
</svg>
