<svg width="22" height="21" viewBox="0 0 22 21" fill="none" xmlns="http://www.w3.org/2000/svg">
<path fill-rule="evenodd" clip-rule="evenodd" d="M7.75 0H8.75C11.5784 0 12.9926 0 13.8713 0.87868C14.75 1.75736 14.75 3.17157 14.75 6V14.25H16.3214C17.5246 14.25 18.5 15.2254 18.5 16.4286V16.5C18.5 16.9142 18.8358 17.25 19.25 17.25C19.6642 17.25 20 16.9142 20 16.5V11.75L18.7757 11.3419C18.1631 11.1377 17.75 10.5645 17.75 9.91886V7.5C17.75 6.67157 18.4216 6 19.25 6H20V5.62247C20 5.43743 19.9997 5.37384 19.9965 5.31573C19.9631 4.72114 19.6953 4.16405 19.2519 3.76653C19.2085 3.72768 19.1591 3.68774 19.0146 3.57215L17.7815 2.58568C17.458 2.32692 17.4056 1.85495 17.6643 1.53151C17.9231 1.20806 18.3951 1.15562 18.7185 1.41438L19.9678 2.41378C20.0901 2.51163 20.1745 2.57915 20.2531 2.64962C20.9922 3.31214 21.4384 4.24063 21.4941 5.23161C21.5 5.33702 21.5 5.44511 21.5 5.60177V16.5C21.5 17.7427 20.4926 18.75 19.25 18.75C18.0074 18.75 17 17.7427 17 16.5V16.4286C17 16.0538 16.6962 15.75 16.3214 15.75H14.75V19.25H15.8734C16.2876 19.25 16.6234 19.5858 16.6234 20C16.6234 20.4142 16.2876 20.75 15.8734 20.75H0.75C0.335786 20.75 0 20.4142 0 20C0 19.5858 0.335786 19.25 0.75 19.25H1.75V6C1.75 3.17157 1.75 1.75736 2.62868 0.87868C3.50736 0 4.92157 0 7.75 0ZM6 14.25C5.58579 14.25 5.25 14.5858 5.25 15C5.25 15.4142 5.58579 15.75 6 15.75H11C11.4142 15.75 11.75 15.4142 11.75 15C11.75 14.5858 11.4142 14.25 11 14.25H6ZM10 4H7C6.05719 4 5.58579 4 5.29289 4.29289C5 4.58579 5 5.05719 5 6C5 6.94281 5 7.41421 5.29289 7.70711C5.58579 8 6.05719 8 7 8H10C10.9428 8 11.4142 8 11.7071 7.70711C12 7.41421 12 6.94281 12 6C12 5.05719 12 4.58579 11.7071 4.29289C11.4142 4 10.9428 4 10 4Z" fill="#1C274C"/>
</svg>
