<svg width="32" height="32" viewBox="0 0 32 32" fill="none" xmlns="http://www.w3.org/2000/svg">
<path d="M15.0001 2.66666C15.0001 2.11438 15.4478 1.66666 16.0001 1.66666C23.9162 1.66666 30.3334 8.08392 30.3334 16C30.3334 23.9161 23.9162 30.3333 16.0001 30.3333C8.084 30.3333 1.66675 23.9161 1.66675 16C1.66675 11.9906 3.31427 8.36421 5.9667 5.76399C6.36109 5.37736 6.99422 5.38366 7.38085 5.77804C7.76747 6.17243 7.76118 6.80556 7.36679 7.19219C5.08226 9.43175 3.66675 12.5497 3.66675 16C3.66675 22.8115 9.18857 28.3333 16.0001 28.3333C22.8116 28.3333 28.3334 22.8115 28.3334 16C28.3334 9.18849 22.8116 3.66666 16.0001 3.66666C15.4478 3.66666 15.0001 3.21895 15.0001 2.66666Z" fill="#1AA830"/>
<path d="M15.0001 6.66666C15.0001 6.11438 15.4478 5.66666 16.0001 5.66666C21.707 5.66666 26.3334 10.2931 26.3334 16C26.3334 21.7069 21.707 26.3333 16.0001 26.3333C10.2931 26.3333 5.66675 21.7069 5.66675 16C5.66675 15.4477 6.11446 15 6.66675 15C7.21903 15 7.66675 15.4477 7.66675 16C7.66675 20.6024 11.3977 24.3333 16.0001 24.3333C20.6025 24.3333 24.3334 20.6024 24.3334 16C24.3334 11.3976 20.6025 7.66666 16.0001 7.66666C15.4478 7.66666 15.0001 7.21895 15.0001 6.66666Z" fill="#1AA830"/>
<path d="M16.0001 9.66666C15.4478 9.66666 15.0001 10.1144 15.0001 10.6667C15.0001 11.2189 15.4478 11.6667 16.0001 11.6667C18.3933 11.6667 20.3334 13.6068 20.3334 16C20.3334 18.3932 18.3933 20.3333 16.0001 20.3333C15.4478 20.3333 15.0001 20.781 15.0001 21.3333C15.0001 21.8856 15.4478 22.3333 16.0001 22.3333C19.4979 22.3333 22.3334 19.4978 22.3334 16C22.3334 12.5022 19.4979 9.66666 16.0001 9.66666Z" fill="#1AA830"/>
</svg>
