<svg width="22" height="22" viewBox="0 0 22 22" fill="none" xmlns="http://www.w3.org/2000/svg">
<g id="database-line">
<path id="Vector" d="M10.175 16.775V8.52499H4.4V16.775H10.175ZM10.175 6.87499V4.39999C10.175 4.18119 10.2619 3.97135 10.4166 3.81663C10.5714 3.66191 10.7812 3.57499 11 3.57499H18.425C18.6438 3.57499 18.8536 3.66191 19.0084 3.81663C19.1631 3.97135 19.25 4.18119 19.25 4.39999V17.6C19.25 17.8188 19.1631 18.0286 19.0084 18.1834C18.8536 18.3381 18.6438 18.425 18.425 18.425H3.575C3.3562 18.425 3.14636 18.3381 2.99164 18.1834C2.83692 18.0286 2.75 17.8188 2.75 17.6V7.69999C2.75 7.48119 2.83692 7.27135 2.99164 7.11663C3.14636 6.96191 3.3562 6.87499 3.575 6.87499H10.175ZM11.825 5.22499V16.775H17.6V5.22499H11.825ZM5.225 14.3H9.35V15.95H5.225V14.3ZM12.65 14.3H16.775V15.95H12.65V14.3ZM12.65 11.825H16.775V13.475H12.65V11.825ZM12.65 9.34999H16.775V11H12.65V9.34999ZM5.225 11.825H9.35V13.475H5.225V11.825Z" fill="#643131"/>
</g>
</svg>
