<svg width="22" height="22" viewBox="0 0 22 22" fill="none" xmlns="http://www.w3.org/2000/svg">
<g id="funds-box-line">
<path id="Vector" d="M4.40001 5.225V16.775H17.6V5.225H4.40001ZM3.57501 3.575H18.425C18.6438 3.575 18.8536 3.66192 19.0084 3.81664C19.1631 3.97135 19.25 4.1812 19.25 4.4V17.6C19.25 17.8188 19.1631 18.0286 19.0084 18.1834C18.8536 18.3381 18.6438 18.425 18.425 18.425H3.57501C3.3562 18.425 3.14636 18.3381 2.99164 18.1834C2.83693 18.0286 2.75001 17.8188 2.75001 17.6V4.4C2.75001 4.1812 2.83693 3.97135 2.99164 3.81664C3.14636 3.66192 3.3562 3.575 3.57501 3.575ZM13.3042 9.17922L11.825 7.7H15.95V11.825L14.4708 10.3458L11.283 13.5336L9.53316 11.7837L7.19923 14.1168L6.03268 12.9503L9.53316 9.44982L11.283 11.2005L13.3042 9.17922Z" fill="#E7B900"/>
</g>
</svg>
