<svg width="22" height="22" viewBox="0 0 22 22" fill="none" xmlns="http://www.w3.org/2000/svg">
<g id="hand-coin-line">
<path id="Vector" d="M5.22501 8.525C5.44381 8.525 5.65365 8.61192 5.80837 8.76663C5.96309 8.92135 6.05001 9.13119 6.05001 9.35C7.3462 9.34809 8.60502 9.78417 9.62226 10.5875H11.4125C12.5122 10.5875 13.4998 11.066 14.1796 11.825H16.775C17.5548 11.8248 18.3188 12.0456 18.9782 12.4619C19.6376 12.8782 20.1655 13.4729 20.5007 14.1771C18.5496 16.7519 15.3907 18.425 11.825 18.425C9.52326 18.425 7.57626 17.9275 6.00051 17.0571C5.94279 17.2164 5.83736 17.354 5.69857 17.4512C5.55979 17.5483 5.39441 17.6003 5.22501 17.6H2.75001C2.5312 17.6 2.32136 17.5131 2.16665 17.3584C2.01193 17.2036 1.92501 16.9938 1.92501 16.775V9.35C1.92501 9.13119 2.01193 8.92135 2.16665 8.76663C2.32136 8.61192 2.5312 8.525 2.75001 8.525H5.22501ZM6.05083 11L6.05001 15.1431L6.08713 15.1695C7.56801 16.209 9.49686 16.775 11.825 16.775C14.3033 16.775 16.6092 15.8213 18.2889 14.1927L18.3986 14.083L18.2996 14.0005C17.91 13.6954 17.4378 13.5143 16.9441 13.4808L16.775 13.475H15.0334C15.0928 13.7406 15.125 14.0162 15.125 14.3V15.125H7.70001V13.475L13.3018 13.4742L13.2737 13.4098C13.1156 13.0794 12.8724 12.7971 12.5691 12.5918C12.2658 12.3865 11.9133 12.2656 11.5478 12.2416L11.4125 12.2375H8.99526C8.61189 11.8454 8.15398 11.5339 7.64846 11.3214C7.14295 11.1089 6.60003 10.9996 6.05166 11H6.05083ZM4.40001 10.175H3.57501V15.95H4.40001V10.175ZM15.95 5.225C16.6064 5.225 17.2359 5.48576 17.7001 5.94991C18.1642 6.41406 18.425 7.04359 18.425 7.7C18.425 8.35641 18.1642 8.98594 17.7001 9.45009C17.2359 9.91424 16.6064 10.175 15.95 10.175C15.2936 10.175 14.6641 9.91424 14.1999 9.45009C13.7358 8.98594 13.475 8.35641 13.475 7.7C13.475 7.04359 13.7358 6.41406 14.1999 5.94991C14.6641 5.48576 15.2936 5.225 15.95 5.225ZM15.95 6.875C15.7312 6.875 15.5214 6.96192 15.3666 7.11664C15.2119 7.27135 15.125 7.48119 15.125 7.7C15.125 7.9188 15.2119 8.12864 15.3666 8.28336C15.5214 8.43808 15.7312 8.525 15.95 8.525C16.1688 8.525 16.3787 8.43808 16.5334 8.28336C16.6881 8.12864 16.775 7.9188 16.775 7.7C16.775 7.48119 16.6881 7.27135 16.5334 7.11664C16.3787 6.96192 16.1688 6.875 15.95 6.875ZM10.175 2.75C10.8314 2.75 11.4609 3.01076 11.9251 3.47491C12.3892 3.93906 12.65 4.56859 12.65 5.225C12.65 5.88141 12.3892 6.51094 11.9251 6.97509C11.4609 7.43924 10.8314 7.7 10.175 7.7C9.5186 7.7 8.88907 7.43924 8.42492 6.97509C7.96076 6.51094 7.70001 5.88141 7.70001 5.225C7.70001 4.56859 7.96076 3.93906 8.42492 3.47491C8.88907 3.01076 9.5186 2.75 10.175 2.75ZM10.175 4.4C9.9562 4.4 9.74636 4.48692 9.59164 4.64164C9.43693 4.79635 9.35001 5.0062 9.35001 5.225C9.35001 5.4438 9.43693 5.65364 9.59164 5.80836C9.74636 5.96308 9.9562 6.05 10.175 6.05C10.3938 6.05 10.6037 5.96308 10.7584 5.80836C10.9131 5.65364 11 5.4438 11 5.225C11 5.0062 10.9131 4.79635 10.7584 4.64164C10.6037 4.48692 10.3938 4.4 10.175 4.4Z" fill="#ED3E35"/>
</g>
</svg>
