<svg width="22" height="22" viewBox="0 0 22 22" fill="none" xmlns="http://www.w3.org/2000/svg">
<g id="exchange-dollar-line">
<path id="Vector" d="M17.0844 13.56C17.6197 12.2881 17.7429 10.8804 17.4367 9.53483C17.1305 8.18927 16.4103 6.97351 15.3774 6.05846C14.3444 5.14342 13.0507 4.57512 11.678 4.43347C10.3053 4.29181 8.9228 4.58392 7.72475 5.26873L6.90635 3.83571C8.1584 3.12011 9.57621 2.74536 11.0183 2.74883C12.4604 2.75231 13.8764 3.13389 15.125 3.85551C18.8293 5.99391 20.2482 10.5727 18.5215 14.3908L19.6287 15.0293L16.1926 16.8559L16.0564 12.9668L17.0844 13.56ZM4.91563 8.44003C4.38032 9.71193 4.2571 11.1196 4.56328 12.4652C4.86947 13.8107 5.58966 15.0265 6.62261 15.9415C7.65556 16.8566 8.94932 17.4249 10.322 17.5665C11.6947 17.7082 13.0772 17.4161 14.2753 16.7313L15.0937 18.1643C13.8416 18.8799 12.4238 19.2547 10.9817 19.2512C9.53957 19.2477 8.12359 18.8661 6.875 18.1445C3.17075 16.0061 1.75175 11.4274 3.47848 7.60926L2.3705 6.97153L5.80663 5.14498L5.94275 9.03403L4.9148 8.44086L4.91563 8.44003ZM8.1125 12.65H12.65C12.7594 12.65 12.8643 12.6065 12.9417 12.5292C13.019 12.4518 13.0625 12.3469 13.0625 12.2375C13.0625 12.1281 13.019 12.0232 12.9417 11.9458C12.8643 11.8685 12.7594 11.825 12.65 11.825H9.35C8.80299 11.825 8.27839 11.6077 7.89159 11.2209C7.5048 10.8341 7.2875 10.3095 7.2875 9.7625C7.2875 9.2155 7.5048 8.69089 7.89159 8.3041C8.27839 7.9173 8.80299 7.70001 9.35 7.70001H10.175V6.87501H11.825V7.70001H13.8875V9.35001H9.35C9.2406 9.35001 9.13568 9.39346 9.05832 9.47082C8.98096 9.54818 8.9375 9.6531 8.9375 9.7625C8.9375 9.87191 8.98096 9.97683 9.05832 10.0542C9.13568 10.1315 9.2406 10.175 9.35 10.175H12.65C13.197 10.175 13.7216 10.3923 14.1084 10.7791C14.4952 11.1659 14.7125 11.6905 14.7125 12.2375C14.7125 12.7845 14.4952 13.3091 14.1084 13.6959C13.7216 14.0827 13.197 14.3 12.65 14.3H11.825V15.125H10.175V14.3H8.1125V12.65Z" fill="#B624A8"/>
</g>
</svg>
