<svg width="22" height="22" viewBox="0 0 22 22" fill="none" xmlns="http://www.w3.org/2000/svg">
<g id="currency-line">
<path id="Vector" d="M15.125 14.3H16.775V4.4H8.525V6.05H15.125V14.3ZM15.125 15.95V18.425C15.125 18.8804 14.7537 19.25 14.2942 19.25H4.40577C4.29698 19.2506 4.18913 19.2298 4.08842 19.1886C3.9877 19.1475 3.89612 19.0868 3.81892 19.0102C3.74172 18.9335 3.68043 18.8423 3.63857 18.7419C3.59671 18.6415 3.57511 18.5338 3.575 18.425L3.57748 6.875C3.57748 6.4196 3.94873 6.05 4.40825 6.05H6.875V3.575C6.875 3.35619 6.96192 3.14635 7.11664 2.99163C7.27135 2.83692 7.4812 2.75 7.7 2.75H17.6C17.8188 2.75 18.0286 2.83692 18.1834 2.99163C18.3381 3.14635 18.425 3.35619 18.425 3.575V15.125C18.425 15.3438 18.3381 15.5536 18.1834 15.7084C18.0286 15.8631 17.8188 15.95 17.6 15.95H15.125ZM5.22747 7.7L5.225 17.6H13.475V7.7H5.22747ZM6.875 14.3H10.5875C10.6969 14.3 10.8018 14.2565 10.8792 14.1792C10.9565 14.1018 11 13.9969 11 13.8875C11 13.7781 10.9565 13.6732 10.8792 13.5958C10.8018 13.5185 10.6969 13.475 10.5875 13.475H8.1125C7.56549 13.475 7.04089 13.2577 6.65409 12.8709C6.2673 12.4841 6.05 11.9595 6.05 11.4125C6.05 10.8655 6.2673 10.3409 6.65409 9.95409C7.04089 9.5673 7.56549 9.35 8.1125 9.35H8.525V8.525H10.175V9.35H11.825V11H8.1125C8.0031 11 7.89818 11.0435 7.82082 11.1208C7.74346 11.1982 7.7 11.3031 7.7 11.4125C7.7 11.5219 7.74346 11.6268 7.82082 11.7042C7.89818 11.7815 8.0031 11.825 8.1125 11.825H10.5875C11.1345 11.825 11.6591 12.0423 12.0459 12.4291C12.4327 12.8159 12.65 13.3405 12.65 13.8875C12.65 14.4345 12.4327 14.9591 12.0459 15.3459C11.6591 15.7327 11.1345 15.95 10.5875 15.95H10.175V16.775H8.525V15.95H6.875V14.3Z" fill="#5024B6"/>
</g>
</svg>
