<svg width="22" height="22" viewBox="0 0 22 22" fill="none" xmlns="http://www.w3.org/2000/svg">
<g id="wallet-line">
<path id="Vector" d="M15.95 6.87499H18.425C18.6438 6.87499 18.8536 6.96191 19.0084 7.11663C19.1631 7.27135 19.25 7.48119 19.25 7.69999V17.6C19.25 17.8188 19.1631 18.0286 19.0084 18.1834C18.8536 18.3381 18.6438 18.425 18.425 18.425H3.575C3.35619 18.425 3.14635 18.3381 2.99163 18.1834C2.83692 18.0286 2.75 17.8188 2.75 17.6V4.39999C2.75 4.18119 2.83692 3.97135 2.99163 3.81663C3.14635 3.66191 3.35619 3.57499 3.575 3.57499H15.95V6.87499ZM4.4 8.52499V16.775H17.6V8.52499H4.4ZM4.4 5.22499V6.87499H14.3V5.22499H4.4ZM13.475 11.825H15.95V13.475H13.475V11.825Z" fill="#249EB6"/>
</g>
</svg>
