<svg width="22" height="22" viewBox="0 0 22 22" fill="none" xmlns="http://www.w3.org/2000/svg">
<g id="refresh-line">
<path id="Vector" d="M5.60698 4.75722C7.10399 3.46004 9.01917 2.74723 11 2.75C15.5565 2.75 19.25 6.44352 19.25 11C19.25 12.7622 18.6973 14.3957 17.7568 15.7355L15.125 11H17.6C17.6001 9.70609 17.2199 8.44069 16.5066 7.36114C15.7933 6.28158 14.7785 5.4355 13.5882 4.9281C12.3979 4.4207 11.0847 4.27435 9.81197 4.50726C8.5392 4.74017 7.36296 5.34207 6.42951 6.2381L5.60698 4.75722ZM16.393 17.2428C14.896 18.54 12.9808 19.2528 11 19.25C6.44353 19.25 2.75001 15.5565 2.75001 11C2.75001 9.2378 3.30276 7.6043 4.24326 6.2645L6.87501 11H4.40001C4.3999 12.2939 4.78013 13.5593 5.49341 14.6389C6.20669 15.7184 7.22156 16.5645 8.41183 17.0719C9.60211 17.5793 10.9153 17.7256 12.188 17.4927C13.4608 17.2598 14.6371 16.6579 15.5705 15.7619L16.393 17.2428Z" fill="#0C6FFA"/>
</g>
</svg>
