<svg width="22" height="22" viewBox="0 0 22 22" fill="none" xmlns="http://www.w3.org/2000/svg">
<g id="bnb-line">
<path id="Vector" d="M10.9999 16.9737L9.61867 16.174L9.61677 17.7617L11 18.5625L12.3829 17.7619L12.381 16.1742L10.9999 16.9737ZM13.755 15.3787L13.7569 16.9664L17.5313 14.7812V10.4127L16.1563 11.2043V13.9885L13.755 15.3787ZM16.1563 9.61771L17.5313 8.82604V7.21874L16.1591 6.42432L14.7869 7.21873L16.1563 8.01151V9.61771ZM13.4148 6.42432L14.7869 5.62992L11 3.43749L7.21302 5.62996L8.58517 6.42437L10.9999 5.02633L13.4148 6.42432ZM7.21302 7.21877L5.84086 6.42437L4.46875 7.21874V8.82633L5.84371 9.61796V8.01153L7.21302 7.21877ZM4.46875 10.4129L5.84371 11.2046V13.9885L8.24462 15.3785L8.24272 16.9662L4.46875 14.7812V10.4129ZM14.7812 8.80429L13.4147 8.01316L10.9999 9.4112L8.58521 8.01321L7.21875 8.80431V10.4096L9.62391 11.7944L9.62057 14.5863L10.9999 15.3849L12.3791 14.5865L12.3758 11.7943L14.7812 10.4094V8.80429ZM8.24652 13.7908L8.24796 12.5888L7.21875 11.9962V13.1958L8.24652 13.7908ZM9.95734 7.2188L10.9999 7.82238L12.0425 7.21875L11 6.61517L9.95734 7.2188ZM13.7517 12.5887L14.7812 11.996V13.1957L13.7532 13.791L13.7517 12.5887Z" fill="#1AA830"/>
</g>
</svg>
