<svg width="22" height="22" viewBox="0 0 22 22" fill="none" xmlns="http://www.w3.org/2000/svg">
<g id="edit-circle-line">
<path id="Vector" d="M11.5643 4.42393C10.2158 4.30825 8.86426 4.60997 7.69296 5.28821C6.52166 5.96645 5.5872 6.9884 5.01623 8.21557C4.44526 9.44274 4.26539 10.8158 4.50098 12.1486C4.73658 13.4814 5.37626 14.7096 6.33332 15.6667C7.29039 16.6237 8.51856 17.2634 9.85139 17.499C11.1842 17.7346 12.5573 17.5547 13.7844 16.9838C15.0116 16.4128 16.0336 15.4783 16.7118 14.307C17.39 13.1357 17.6918 11.7842 17.5761 10.4357C17.5182 9.74253 17.3503 9.06301 17.0786 8.4227L18.3161 7.18355C18.9323 8.36114 19.2528 9.67094 19.25 11C19.25 15.5565 15.5565 19.25 11 19.25C6.44353 19.25 2.75 15.5565 2.75 11C2.75 6.44353 6.44353 2.75 11 2.75C12.3289 2.74882 13.6383 3.06924 14.8165 3.6839L13.5781 4.9214C12.9378 4.64976 12.2583 4.48184 11.5651 4.42393H11.5643ZM18.0001 2.8325L19.1675 3.99988L11.5841 11.5833L10.4192 11.5857L10.4176 10.4167L18.0001 2.8325Z" fill="#1AA830"/>
</g>
</svg>
