<svg width="22" height="22" viewBox="0 0 22 22" fill="none" xmlns="http://www.w3.org/2000/svg">
<g id="money-dollar-circle-line">
<path id="Vector" d="M11 19.25C6.44353 19.25 2.75001 15.5565 2.75001 11C2.75001 6.44352 6.44353 2.74999 11 2.74999C15.5565 2.74999 19.25 6.44352 19.25 11C19.25 15.5565 15.5565 19.25 11 19.25ZM11 17.6C12.7504 17.6 14.4292 16.9046 15.6669 15.6669C16.9046 14.4292 17.6 12.7504 17.6 11C17.6 9.24956 16.9046 7.57083 15.6669 6.33309C14.4292 5.09535 12.7504 4.39999 11 4.39999C9.24958 4.39999 7.57084 5.09535 6.3331 6.33309C5.09536 7.57083 4.40001 9.24956 4.40001 11C4.40001 12.7504 5.09536 14.4292 6.3331 15.6669C7.57084 16.9046 9.24958 17.6 11 17.6ZM8.11251 12.65H12.65C12.7594 12.65 12.8643 12.6065 12.9417 12.5292C13.019 12.4518 13.0625 12.3469 13.0625 12.2375C13.0625 12.1281 13.019 12.0232 12.9417 11.9458C12.8643 11.8684 12.7594 11.825 12.65 11.825H9.35001C8.803 11.825 8.27839 11.6077 7.8916 11.2209C7.5048 10.8341 7.28751 10.3095 7.28751 9.76249C7.28751 9.21548 7.5048 8.69088 7.8916 8.30408C8.27839 7.91729 8.803 7.69999 9.35001 7.69999H10.175V6.04999H11.825V7.69999H13.8875V9.34999H9.35001C9.2406 9.34999 9.13568 9.39345 9.05832 9.47081C8.98096 9.54817 8.93751 9.65309 8.93751 9.76249C8.93751 9.87189 8.98096 9.97681 9.05832 10.0542C9.13568 10.1315 9.2406 10.175 9.35001 10.175H12.65C13.197 10.175 13.7216 10.3923 14.1084 10.7791C14.4952 11.1659 14.7125 11.6905 14.7125 12.2375C14.7125 12.7845 14.4952 13.3091 14.1084 13.6959C13.7216 14.0827 13.197 14.3 12.65 14.3H11.825V15.95H10.175V14.3H8.11251V12.65Z" fill="#114378"/>
</g>
</svg>
