<svg width="22" height="22" viewBox="0 0 22 22" fill="none" xmlns="http://www.w3.org/2000/svg">
<g id="pie-chart-line">
<path id="Vector" d="M11 19.25C6.44353 19.25 2.75001 15.5565 2.75001 11C2.75001 7.30564 5.17798 4.17889 8.52501 3.12784V4.88014C7.10677 5.45603 5.93269 6.5068 5.20361 7.85271C4.47452 9.19862 4.23573 10.756 4.52809 12.2586C4.82045 13.7611 5.62578 15.1153 6.80634 16.0897C7.98689 17.064 9.46931 17.5979 11 17.6C12.3149 17.5999 13.5998 17.2073 14.6901 16.4724C15.7804 15.7375 16.6265 14.6938 17.1199 13.475H18.8722C17.8211 16.822 14.6944 19.25 11 19.25ZM19.2088 11.825H10.175V2.79124C10.4464 2.76402 10.722 2.74999 11 2.74999C15.5565 2.74999 19.25 6.44352 19.25 11C19.25 11.278 19.236 11.5536 19.2088 11.825ZM11.825 4.45114V10.175H17.5489C17.3652 8.72101 16.7031 7.36944 15.6668 6.33316C14.6306 5.29688 13.279 4.63477 11.825 4.45114Z" fill="#00A175"/>
</g>
</svg>
