<svg width="32" height="32" viewBox="0 0 32 32" fill="none" xmlns="http://www.w3.org/2000/svg">
<path fill-rule="evenodd" clip-rule="evenodd" d="M16.0001 3.66666C9.18857 3.66666 3.66675 9.18848 3.66675 16C3.66675 22.8115 9.18857 28.3333 16.0001 28.3333C22.8116 28.3333 28.3334 22.8115 28.3334 16C28.3334 9.18848 22.8116 3.66666 16.0001 3.66666ZM1.66675 16C1.66675 8.08391 8.084 1.66666 16.0001 1.66666C23.9162 1.66666 30.3334 8.08391 30.3334 16C30.3334 23.9161 23.9162 30.3333 16.0001 30.3333C8.084 30.3333 1.66675 23.9161 1.66675 16ZM16.0001 9.66666C16.5524 9.66666 17.0001 10.1144 17.0001 10.6667V15.5858L20.0405 18.6262C20.431 19.0167 20.431 19.6499 20.0405 20.0404C19.65 20.431 19.0168 20.431 18.6263 20.0404L15.293 16.7071C15.1054 16.5196 15.0001 16.2652 15.0001 16V10.6667C15.0001 10.1144 15.4478 9.66666 16.0001 9.66666Z" fill="#0C6FFA"/>
</svg>
