<svg width="32" height="32" viewBox="0 0 32 32" fill="none" xmlns="http://www.w3.org/2000/svg">
<path fill-rule="evenodd" clip-rule="evenodd" d="M16.0001 3.66667C9.18857 3.66667 3.66675 9.18849 3.66675 16C3.66675 22.8115 9.18857 28.3333 16.0001 28.3333C22.8116 28.3333 28.3334 22.8115 28.3334 16C28.3334 9.18849 22.8116 3.66667 16.0001 3.66667ZM1.66675 16C1.66675 8.08392 8.084 1.66667 16.0001 1.66667C23.9162 1.66667 30.3334 8.08392 30.3334 16C30.3334 23.9161 23.9162 30.3333 16.0001 30.3333C8.084 30.3333 1.66675 23.9161 1.66675 16ZM16.0001 7C16.5524 7 17.0001 7.44772 17.0001 8V8.42232C19.174 8.81156 21.0001 10.4448 21.0001 12.6667C21.0001 13.219 20.5524 13.6667 20.0001 13.6667C19.4478 13.6667 19.0001 13.219 19.0001 12.6667C19.0001 11.541 17.8354 10.3333 16.0001 10.3333C14.1648 10.3333 13.0001 11.541 13.0001 12.6667C13.0001 13.7924 14.1648 15 16.0001 15C18.583 15 21.0001 16.7771 21.0001 19.3333C21.0001 21.5552 19.174 23.1884 17.0001 23.5777V24C17.0001 24.5523 16.5524 25 16.0001 25C15.4478 25 15.0001 24.5523 15.0001 24V23.5777C12.8262 23.1884 11.0001 21.5552 11.0001 19.3333C11.0001 18.7811 11.4478 18.3333 12.0001 18.3333C12.5524 18.3333 13.0001 18.7811 13.0001 19.3333C13.0001 20.459 14.1648 21.6667 16.0001 21.6667C17.8354 21.6667 19.0001 20.459 19.0001 19.3333C19.0001 18.2076 17.8354 17 16.0001 17C13.4171 17 11.0001 15.2229 11.0001 12.6667C11.0001 10.4448 12.8262 8.81156 15.0001 8.42232V8C15.0001 7.44772 15.4478 7 16.0001 7Z" fill="#114378"/>
</svg>
