<svg width="32" height="32" viewBox="0 0 32 32" fill="none" xmlns="http://www.w3.org/2000/svg">
<path fill-rule="evenodd" clip-rule="evenodd" d="M12.3461 4.13143C12.8847 2.78366 14.6597 1.95036 16.0362 2.99894C18.3294 4.74581 21.2058 7.31401 23.5196 10.2515C25.8125 13.1626 27.6666 16.5797 27.6666 20C27.6666 23.0577 26.7196 25.33 25.3488 26.9574C23.991 28.5693 22.2658 29.4924 20.7754 29.9562C20.0101 30.1943 19.31 29.8434 18.9699 29.2727C18.6494 28.7349 18.6478 28.0197 19.0483 27.4441C20.1913 25.8014 21.3999 23.4391 21.3999 21.3333C21.3999 20.2886 20.9497 19.0519 20.2223 17.7829C19.6754 16.8287 19.0051 15.9135 18.3524 15.1287C18.2168 16.9992 17.8103 19.3495 16.5492 21.2928C15.9761 22.1759 14.7021 22.2747 14.0239 21.4169C13.8121 21.1491 13.603 20.855 13.4116 20.5857C13.4001 20.5695 13.3886 20.5534 13.3772 20.5374C13.2726 20.3903 13.1731 20.2509 13.0768 20.12C12.1624 21.0307 11.311 22.1203 11.311 23.3333C11.311 24.405 11.8459 25.87 12.4786 27.1113C12.8207 27.7826 12.6777 28.5268 12.2658 29.0141C11.8278 29.5323 11.0307 29.7988 10.2742 29.3608C7.68204 27.8603 4.33325 24.6556 4.33325 20C4.33325 18.7374 4.76138 17.4314 5.36032 16.1558C5.9633 14.8715 6.78098 13.5333 7.63971 12.1965C7.93721 11.7334 8.23913 11.2708 8.54053 10.8089C10.0133 8.55216 11.4736 6.3144 12.3461 4.13143ZM14.531 4.55659C14.3943 4.6039 14.2655 4.71796 14.2032 4.87366C13.2495 7.26006 11.6534 9.70285 10.1803 11.9572C9.88751 12.4054 9.59953 12.8461 9.32244 13.2775C8.47011 14.6043 7.71387 15.8489 7.17071 17.0057C6.62351 18.1712 6.33325 19.1649 6.33325 20C6.33325 23.0593 8.20862 25.4349 10.1773 26.9043C9.70452 25.7828 9.31103 24.4894 9.31103 23.3333C9.31103 21.0258 11.0435 19.2838 12.0118 18.3669C12.639 17.7731 13.7218 17.7199 14.3528 18.4987C14.5811 18.7805 14.8042 19.093 15.007 19.3781L15.0311 19.412C15.088 19.492 15.1434 19.5699 15.1976 19.6456C16.0894 17.9465 16.339 15.8741 16.4015 14.1683C16.4271 13.4664 16.8623 12.9113 17.4329 12.6791C18.0157 12.442 18.7398 12.5465 19.238 13.0976L18.4961 13.7681L19.238 13.0976C20.1264 14.0806 21.1501 15.3797 21.9575 16.7884C22.7541 18.1783 23.3999 19.7772 23.3999 21.3333C23.3999 23.5902 22.3761 25.8801 21.3415 27.5847C22.2109 27.159 23.0878 26.5371 23.8192 25.6689C24.8682 24.4235 25.6666 22.6149 25.6666 20C25.6666 17.2578 24.1499 14.2841 21.9484 11.4891C19.7677 8.72045 17.026 6.26713 14.8243 4.58991C14.7514 4.5344 14.6572 4.5129 14.531 4.55659Z" fill="#B624A8"/>
</svg>
