<svg width="32" height="32" viewBox="0 0 32 32" fill="none" xmlns="http://www.w3.org/2000/svg">
<path d="M15.9236 1.66666H18.0001C18.5524 1.66666 19.0001 2.11437 19.0001 2.66666C19.0001 3.21894 18.5524 3.66666 18.0001 3.66666H16.0001C12.8291 3.66666 10.5515 3.66878 8.81818 3.90182C7.11365 4.13099 6.08602 4.56684 5.32648 5.32639C4.56694 6.08593 4.13108 7.11355 3.90191 8.81809C3.66887 10.5514 3.66675 12.829 3.66675 16C3.66675 19.171 3.66887 21.4486 3.90191 23.1819C4.13108 24.8864 4.56694 25.9141 5.32648 26.6736C6.08602 27.4331 7.11365 27.869 8.81818 28.0982C10.5515 28.3312 12.8291 28.3333 16.0001 28.3333C19.171 28.3333 21.4487 28.3312 23.182 28.0982C24.8865 27.869 25.9141 27.4331 26.6737 26.6736C27.4332 25.9141 27.8691 24.8864 28.0983 23.1819C28.3313 21.4486 28.3334 19.171 28.3334 16V14C28.3334 13.4477 28.7811 13 29.3334 13C29.8857 13 30.3334 13.4477 30.3334 14V16.0765C30.3334 19.1543 30.3334 21.5664 30.0804 23.4484C29.8214 25.3747 29.281 26.8947 28.0879 28.0878C26.8948 29.2809 25.3748 29.8213 23.4485 30.0803C21.5665 30.3334 19.1544 30.3333 16.0766 30.3333H15.9236C12.8457 30.3333 10.4337 30.3334 8.55169 30.0803C6.62537 29.8213 5.10534 29.2809 3.91226 28.0878C2.71918 26.8947 2.17873 25.3747 1.91974 23.4484C1.66672 21.5664 1.66673 19.1544 1.66675 16.0765V15.9235C1.66673 12.8456 1.66672 10.4336 1.91974 8.5516C2.17873 6.62528 2.71918 5.10525 3.91226 3.91217C5.10534 2.71909 6.62537 2.17864 8.55169 1.91965C10.4337 1.66663 12.8457 1.66664 15.9236 1.66666Z" fill="#1AA830"/>
<path fill-rule="evenodd" clip-rule="evenodd" d="M20.3334 6.66666C20.3334 3.90523 22.572 1.66666 25.3334 1.66666C28.0948 1.66666 30.3334 3.90523 30.3334 6.66666C30.3334 9.42808 28.0948 11.6667 25.3334 11.6667C22.572 11.6667 20.3334 9.42808 20.3334 6.66666ZM25.3334 3.66666C23.6766 3.66666 22.3334 5.0098 22.3334 6.66666C22.3334 8.32351 23.6766 9.66666 25.3334 9.66666C26.9903 9.66666 28.3334 8.32351 28.3334 6.66666C28.3334 5.0098 26.9903 3.66666 25.3334 3.66666Z" fill="#1AA830"/>
<path d="M18.3334 13.3333C18.3334 13.8856 18.7811 14.3333 19.3334 14.3333H20.2525L17.5691 17.0167C17.4389 17.1469 17.2279 17.1469 17.0977 17.0167L14.9833 14.9024C14.0721 13.9911 12.5947 13.9911 11.6835 14.9024L8.62631 17.9595C8.23578 18.3501 8.23578 18.9832 8.62631 19.3738C9.01683 19.7643 9.65 19.7643 10.0405 19.3738L13.0977 16.3166C13.2279 16.1864 13.4389 16.1864 13.5691 16.3166L15.6835 18.431C16.5947 19.3422 18.0721 19.3422 18.9833 18.431L21.6667 15.7475V16.6667C21.6667 17.2189 22.1145 17.6667 22.6667 17.6667C23.219 17.6667 23.6667 17.2189 23.6667 16.6667V13.3333C23.6667 12.781 23.219 12.3333 22.6667 12.3333H19.3334C18.7811 12.3333 18.3334 12.781 18.3334 13.3333Z" fill="#1AA830"/>
</svg>
