<svg width="32" height="32" viewBox="0 0 32 32" fill="none" xmlns="http://www.w3.org/2000/svg">
<path fill-rule="evenodd" clip-rule="evenodd" d="M3.90778 14.9337C4.00334 8.31957 9.435 3 16.1052 3C20.5165 3 24.3828 5.3257 26.5246 8.80961C26.8139 9.2801 26.6669 9.89598 26.1964 10.1852C25.726 10.4745 25.1101 10.3275 24.8208 9.85705C23.0303 6.9446 19.7979 5 16.1052 5C10.5261 5 6.00504 9.43693 5.90809 14.9309L6.44192 14.4012C6.83398 14.0122 7.46714 14.0147 7.85612 14.4068C8.24511 14.7988 8.24262 15.432 7.85057 15.821L5.61082 18.0432C5.22094 18.43 4.59205 18.43 4.20217 18.0432L1.96242 15.821C1.57037 15.432 1.56788 14.7988 1.95687 14.4068C2.34586 14.0147 2.97902 14.0122 3.37107 14.4012L3.90778 14.9337ZM26.382 13.9554C26.7715 13.5704 27.3984 13.5704 27.7879 13.9554L30.0362 16.1777C30.429 16.5659 30.4327 17.1991 30.0445 17.5919C29.6562 17.9847 29.0231 17.9883 28.6303 17.6001L28.0838 17.0599C27.9912 23.6805 22.5357 29 15.8434 29C11.4185 29 7.53849 26.676 5.38834 23.1918C5.0983 22.7218 5.24418 22.1057 5.71417 21.8157C6.18416 21.5256 6.80029 21.6715 7.09034 22.1415C8.88755 25.0537 12.1334 27 15.8434 27C21.4517 27 25.9896 22.5561 26.0835 17.0626L25.5396 17.6001C25.1468 17.9883 24.5137 17.9847 24.1254 17.5919C23.7372 17.1991 23.7409 16.5659 24.1337 16.1777L26.382 13.9554Z" fill="#01AD7E"/>
</svg>
