<svg width="32" height="32" viewBox="0 0 32 32" fill="none" xmlns="http://www.w3.org/2000/svg">
<path fill-rule="evenodd" clip-rule="evenodd" d="M16.0001 1.66667C16.5524 1.66667 17.0001 2.11439 17.0001 2.66667V4.00001C17.0001 4.55229 16.5524 5 16.0001 5C15.4478 5 15.0001 4.55229 15.0001 4.00001V2.66667C15.0001 2.11439 15.4478 1.66667 16.0001 1.66667ZM5.86489 5.86482C6.25542 5.47429 6.88858 5.47429 7.27911 5.86482L7.80289 6.3886C8.19342 6.77913 8.19342 7.41229 7.80289 7.80281C7.41237 8.19334 6.7792 8.19334 6.38868 7.80281L5.86489 7.27903C5.47437 6.88851 5.47437 6.25534 5.86489 5.86482ZM26.1349 5.86516C26.5254 6.25569 26.5254 6.88885 26.1349 7.27938L25.6111 7.80316C25.2206 8.19368 24.5874 8.19368 24.1969 7.80316C23.8064 7.41263 23.8064 6.77947 24.1969 6.38895L24.7207 5.86516C25.1112 5.47464 25.7444 5.47464 26.1349 5.86516ZM16.0001 9C12.1341 9 9.00008 12.134 9.00008 16C9.00008 19.866 12.1341 23 16.0001 23C19.8661 23 23.0001 19.866 23.0001 16C23.0001 12.134 19.8661 9 16.0001 9ZM7.00008 16C7.00008 11.0294 11.0295 7 16.0001 7C20.9706 7 25.0001 11.0294 25.0001 16C25.0001 20.9706 20.9706 25 16.0001 25C11.0295 25 7.00008 20.9706 7.00008 16ZM1.66675 16C1.66675 15.4477 2.11446 15 2.66675 15H4.00008C4.55237 15 5.00008 15.4477 5.00008 16C5.00008 16.5523 4.55237 17 4.00008 17H2.66675C2.11446 17 1.66675 16.5523 1.66675 16ZM27.0001 16C27.0001 15.4477 27.4478 15 28.0001 15H29.3334C29.8857 15 30.3334 15.4477 30.3334 16C30.3334 16.5523 29.8857 17 29.3334 17H28.0001C27.4478 17 27.0001 16.5523 27.0001 16ZM24.1969 24.1968C24.5875 23.8063 25.2206 23.8063 25.6111 24.1968L26.1349 24.7206C26.5254 25.1112 26.5254 25.7443 26.1349 26.1348C25.7444 26.5254 25.1112 26.5254 24.7207 26.1348L24.1969 25.6111C23.8064 25.2205 23.8064 24.5874 24.1969 24.1968ZM7.80289 24.1972C8.19342 24.5877 8.19342 25.2209 7.80289 25.6114L7.27911 26.1352C6.88858 26.5257 6.25542 26.5257 5.8649 26.1352C5.47437 25.7447 5.47437 25.1115 5.86489 24.721L6.38868 24.1972C6.7792 23.8067 7.41237 23.8067 7.80289 24.1972ZM16.0001 27C16.5524 27 17.0001 27.4477 17.0001 28V29.3333C17.0001 29.8856 16.5524 30.3333 16.0001 30.3333C15.4478 30.3333 15.0001 29.8856 15.0001 29.3333V28C15.0001 27.4477 15.4478 27 16.0001 27Z" fill="#ED3E35"/>
</svg>
